<svg width="102" height="72" viewBox="0 0 102 72" fill="none" xmlns="http://www.w3.org/2000/svg">
<g clip-path="url(#clip0_7822_12618)">
<path opacity="0.8" d="M51.247 72.0315C79.136 72.0315 101.745 69.9363 101.745 67.3517C101.745 64.7671 79.136 62.6719 51.247 62.6719C23.358 62.6719 0.749512 64.7671 0.749512 67.3517C0.749512 69.9363 23.358 72.0315 51.247 72.0315Z" fill="#EAEAEA"/>
<path d="M19.9665 43.3883C17.7913 44.5966 16.0098 47.0805 14.8438 49.2334C13.8682 51.0346 12.8328 52.8283 12.2564 54.7885C12.6202 53.5222 13.1276 52.284 13.663 51.0084C14.6741 48.5993 15.84 46.2575 16.7896 43.8222C17.8081 41.2093 19.2763 38.5495 18.7054 35.6541C18.5786 35.0125 18.3435 34.3523 17.8361 33.9427C15.5359 32.0835 14.5136 36.262 14.1816 37.6854C13.7003 39.7503 13.4186 41.8545 13.1388 43.9569C12.7078 47.1853 12.1333 50.3388 11.8497 53.5335C11.8329 53.2174 11.8124 52.9013 11.7863 52.587C11.9691 49.9292 12.0605 47.2601 12.234 44.561C12.3907 42.1426 12.5455 39.7204 12.4989 37.3076C12.4653 35.6447 12.3198 30.7536 9.67451 32.4314C9.09061 32.8017 8.72496 33.5031 8.46752 34.2027C7.48813 36.8755 7.97876 39.6231 8.43581 42.3016C7.55342 41.9088 6.43785 42.3072 6.48262 43.5304C6.51247 44.3516 7.12436 45.2812 7.50492 45.8872C8.31455 47.1796 9.13911 48.5114 9.8051 49.9142C9.96739 50.7447 10.1241 51.577 10.2696 52.4131C10.3405 52.8208 10.4095 53.2267 10.4748 53.6307C10.0607 52.3102 9.50661 51.0252 8.98241 49.7402C8.05711 47.4733 6.55351 44.8117 4.52197 43.3733C3.43065 42.6008 1.73863 43.3303 2.23485 44.8117C2.49602 45.5917 3.3467 46.3062 3.88397 46.7794C5.53867 48.2383 7.24375 49.7664 8.53095 51.6051C9.28462 52.6824 10.1129 53.8309 10.6278 55.0747L10.1204 55.1065L9.83121 55.1252L3.92128 55.4993L4.04813 57.5567H5.05364L5.0723 57.7756L5.93416 67.9974H16.9369L18.3697 58.5387L18.5189 57.5567H19.5076L19.849 54.4949L14.5752 54.8278L13.2675 54.9101L12.3422 54.9681C12.969 53.5353 14.0902 52.2971 15.1013 51.1412C16.5788 49.4522 18.4405 48.1186 20.2426 46.8486C20.8265 46.4371 21.75 45.818 22.0951 45.0717C22.748 43.6539 21.1455 42.7449 19.9777 43.3939L19.9665 43.3883Z" fill="#52A27A"/>
<path d="M14.5672 54.8329L13.2595 54.9152L12.3323 54.9751L11.8753 55.0031L11.5022 55.0275L10.6235 55.0817L10.1161 55.1135L9.82696 55.1322L3.91516 55.5063L4.04388 57.5619H5.04939L5.06805 57.7807L5.92991 68.0026H16.9327L18.3635 58.5457L18.5128 57.5619H19.5015L19.841 54.5L14.5672 54.8329Z" fill="#D75C4C"/>
<path d="M14.5672 54.8329L13.2595 54.9152L12.3323 54.9751L11.8753 55.0031L11.5022 55.0275L10.6235 55.0817L10.1161 55.1135L9.82696 55.1322L3.91516 55.5063L4.04388 57.5619H5.04939L5.06805 57.7807L5.92991 68.0026H16.9327L18.3635 58.5457L18.5128 57.5619H19.5015L19.841 54.5L14.5672 54.8329Z" fill="#BC5957"/>
<path d="M5.04932 57.5586L5.06797 57.7774C5.32541 57.8354 5.58285 57.8897 5.84216 57.9402C6.22272 61.1386 6.56225 64.3407 6.86073 67.5485C6.87379 67.6981 6.88871 67.8497 6.90177 67.9993H7.10511C6.80849 64.7728 6.47084 61.5482 6.09214 58.3311C6.07908 58.2132 6.06415 58.0973 6.0511 57.9794C6.45031 58.0524 6.85326 58.1179 7.25621 58.174C7.39053 61.2527 7.57335 64.3295 7.80281 67.4045C7.81773 67.6028 7.83266 67.801 7.84758 67.9993H8.05092C7.80094 64.7429 7.6032 61.4827 7.45956 58.2207C7.45956 58.2151 7.45956 58.2076 7.45956 58.202C7.86064 58.2544 8.26173 58.3012 8.66468 58.3404C8.62737 61.2994 8.68333 64.2584 8.83257 67.2137C8.84563 67.4756 8.86055 67.7374 8.87548 67.9993H9.07882C8.89786 64.7896 8.82697 61.5725 8.86802 58.3591C9.62728 58.4283 10.3903 58.4751 11.1514 58.5088C10.976 61.4846 10.9201 64.4679 10.9872 67.4494C10.991 67.6327 10.9966 67.8179 11.0003 68.0012H11.2055C11.1197 64.8401 11.1682 61.6754 11.3529 58.5181C11.5562 58.5256 11.7614 58.5331 11.9648 58.5406C11.9946 58.5406 12.0245 58.5406 12.0543 58.5424C11.8491 60.9852 11.7614 63.4373 11.7913 65.8876C11.8006 66.5927 11.8193 67.2979 11.8472 68.0012H12.0506C11.9256 64.8495 11.9946 61.6904 12.2558 58.548C12.3733 58.5518 12.4908 58.5537 12.6084 58.5574C12.9964 58.5668 13.3863 58.5742 13.7743 58.578C13.5393 61.1105 13.4161 63.6524 13.4068 66.1962C13.4049 66.7966 13.4068 67.3989 13.418 67.9993H13.6213C13.5691 64.8551 13.6866 61.7091 13.9758 58.5798C14.1026 58.5798 14.2295 58.5817 14.3563 58.5836C14.1344 61.0956 14.0373 63.6188 14.0635 66.1401C14.0691 66.7611 14.084 67.3802 14.1064 67.9993H14.3097C14.2015 64.8588 14.2836 61.7147 14.5597 58.5855C15.3731 58.5911 16.1864 58.5929 17.0016 58.5911C16.6472 61.7278 16.2946 64.8626 15.9402 67.9993H16.1435C16.498 64.8626 16.8505 61.7278 17.205 58.5911H17.2124C17.5949 58.5911 17.9848 58.5911 18.3635 58.5406L18.5127 57.5586H5.04932Z" fill="#A03F3F"/>
<path d="M14.5674 54.8217C15.0786 54.601 15.5953 54.399 16.0934 54.2007C18.1753 53.3721 20.44 53.0354 22.6208 52.7287C23.3278 52.6295 24.4304 52.5005 25.0758 51.9936C26.3015 51.0303 25.2885 49.4891 23.9528 49.5321C21.4661 49.6144 18.7536 51.0098 16.737 52.3939C15.558 53.2038 14.3547 53.995 13.2578 54.904L14.5655 54.8217H14.5674Z" fill="#8ABD88"/>
<path d="M11.5022 55.0229L11.8753 54.9986C11.8847 54.5123 11.8735 54.026 11.8492 53.5396C11.8324 53.2235 11.8119 52.9074 11.7858 52.5932C11.7205 51.7908 11.6309 50.9865 11.5507 50.186C11.3063 47.7488 10.6217 44.7692 9.08266 42.809C8.90357 42.5827 8.67785 42.4144 8.43533 42.3059C7.55294 41.9131 6.43737 42.3115 6.48214 43.5348C6.51199 44.3559 7.12388 45.2855 7.50444 45.8915C8.31407 47.184 9.13863 48.5157 9.80461 49.9185C10.1031 50.5451 10.368 51.1867 10.5881 51.8432C10.9277 52.8607 11.3008 53.9343 11.5041 55.0229H11.5022Z" fill="#8ABD88"/>
<path d="M7.06626 50.1343C5.53654 48.5239 3.60573 47.4316 1.30929 47.4297C1.022 47.4297 0.714193 47.4596 0.497794 47.6467C0.145213 47.9515 0.20864 48.5482 0.501525 48.9092C0.796276 49.2702 1.24959 49.4535 1.68053 49.6274C4.72131 50.8544 8.04378 52.3526 9.82721 55.1302L10.1164 55.1115C9.4168 53.3122 8.39263 51.5278 7.06626 50.1324V50.1343Z" fill="#8ABD88"/>
<path d="M6.0511 57.9832C6.45031 58.0561 6.85326 58.1216 7.25621 58.1777C7.32337 58.1871 7.3924 58.1964 7.46142 58.2058C7.86251 58.2581 8.26359 58.3049 8.66654 58.3442C8.7337 58.3517 8.80086 58.3573 8.86988 58.3629C9.62914 58.4321 10.3921 58.4788 11.1533 58.5125C11.2204 58.5163 11.2876 58.5181 11.3547 58.52C11.5581 58.5275 11.7633 58.535 11.9666 58.5424C11.9965 58.5424 12.0263 58.5424 12.0562 58.5443C12.1233 58.5462 12.1905 58.548 12.2576 58.5499C12.3752 58.5537 12.4927 58.5555 12.6102 58.5593C12.9983 58.5686 13.3881 58.5761 13.7762 58.5798C13.8433 58.5798 13.9105 58.5817 13.9776 58.5817C14.1045 58.5817 14.2314 58.5836 14.3582 58.5855C14.4254 58.5855 14.4925 58.5855 14.5597 58.5855C15.3731 58.5911 16.1864 58.5929 17.0016 58.5911H17.2124C17.5949 58.5911 17.9848 58.5911 18.3635 58.5406L18.5127 57.5586H5.04932L5.06797 57.7774C5.32541 57.8354 5.58285 57.8897 5.84216 57.9402C5.91118 57.9533 5.98021 57.9663 6.0511 57.9794V57.9832Z" fill="#A84649"/>
<path fill-rule="evenodd" clip-rule="evenodd" d="M21.8243 68.0053H95.0717C96.1014 68.0053 96.9372 67.1673 96.9372 66.1349V57.6562H19.9587V66.1349C19.9587 67.1673 20.7945 68.0053 21.8243 68.0053Z" fill="#2F71A8"/>
<path fill-rule="evenodd" clip-rule="evenodd" d="M19.9589 57.6498H96.9373V49.1712C96.9373 48.1387 96.1015 47.3008 95.0718 47.3008H21.8244C20.7946 47.3008 19.9589 48.1387 19.9589 49.1712V57.6498Z" fill="#3E8FC6"/>
<path d="M96.9372 57.0586H19.9587V58.2631H96.9372V57.0586Z" fill="#17557F"/>
<path fill-rule="evenodd" clip-rule="evenodd" d="M21.8244 67.997H23.1918V47.3008H21.8244C20.7946 47.3008 19.9589 48.1387 19.9589 49.1712V66.1266C19.9589 67.159 20.7946 67.997 21.8244 67.997Z" fill="#6ABEE2"/>
<path fill-rule="evenodd" clip-rule="evenodd" d="M93.7047 67.997H95.0721C96.1019 67.997 96.9376 67.159 96.9376 66.1266V49.1712C96.9376 48.1387 96.1019 47.3008 95.0721 47.3008H93.7047V67.997Z" fill="#6ABEE2"/>
<path fill-rule="evenodd" clip-rule="evenodd" d="M52.3648 60.2565C53.805 60.2565 54.9784 59.0801 54.9784 57.6361C54.9784 56.1921 53.805 55.0156 52.3648 55.0156C50.9246 55.0156 49.7512 56.1921 49.7512 57.6361C49.7512 59.0801 50.9246 60.2565 52.3648 60.2565Z" fill="#6ABEE2"/>
<path fill-rule="evenodd" clip-rule="evenodd" d="M66.8166 60.2565C68.2568 60.2565 69.4302 59.0801 69.4302 57.6361C69.4302 56.1921 68.2568 55.0156 66.8166 55.0156C65.3764 55.0156 64.203 56.1921 64.203 57.6361C64.203 59.0801 65.3764 60.2565 66.8166 60.2565Z" fill="#6ABEE2"/>
<path fill-rule="evenodd" clip-rule="evenodd" d="M51.303 58.0588C51.0829 57.4715 51.3795 56.815 51.9653 56.5924C52.5511 56.3717 53.2059 56.6691 53.4279 57.2564C53.7431 58.0906 54.439 58.7528 55.3456 59.2279C56.366 59.7628 57.6365 60.0621 58.9572 60.1144C60.2911 60.1687 61.6604 59.9723 62.858 59.5159C64.1564 59.0221 65.2403 58.2291 65.813 57.1292C66.1021 56.5737 66.7868 56.3586 67.3408 56.6486C67.8949 56.9385 68.1094 57.6249 67.8203 58.1804C66.9659 59.817 65.4455 60.9655 63.6565 61.6444C62.1734 62.2074 60.4944 62.4506 58.8658 62.3851C57.2242 62.3178 55.6161 61.9325 54.2953 61.2386C52.9111 60.5128 51.8291 59.4504 51.3012 58.0551L51.303 58.0588Z" fill="#17557F"/>
<path fill-rule="evenodd" clip-rule="evenodd" d="M30.4079 47.2994H86.4889C88.1063 47.2994 89.4271 45.9732 89.4271 44.3534V36.3125H27.4679V44.3534C27.4679 45.9751 28.7905 47.2994 30.4061 47.2994H30.4079Z" fill="#B53749"/>
<path fill-rule="evenodd" clip-rule="evenodd" d="M30.4078 47.2994H31.1335V36.3125H27.4696V44.3534C27.4696 45.9751 28.7923 47.2994 30.4078 47.2994Z" fill="#9B2D42"/>
<path fill-rule="evenodd" clip-rule="evenodd" d="M89.4288 28.274V36.315H27.4696V28.274C27.4696 26.6543 28.7923 25.3281 30.4078 25.3281H86.4888C88.1062 25.3281 89.4288 26.6543 89.4288 28.274Z" fill="#D84E55"/>
<path fill-rule="evenodd" clip-rule="evenodd" d="M30.4078 25.3281H31.1335V36.315H27.4696V28.274C27.4696 26.6524 28.7923 25.3281 30.4078 25.3281Z" fill="#C43B48"/>
<path fill-rule="evenodd" clip-rule="evenodd" d="M86.489 47.2994H85.7633V36.3125H89.4272V44.3534C89.4272 45.9751 88.1045 47.2994 86.489 47.2994Z" fill="#9B2D42"/>
<path fill-rule="evenodd" clip-rule="evenodd" d="M86.4892 25.3281H85.7635V36.315H89.4274V28.274C89.4274 26.6524 88.1048 25.3281 86.4892 25.3281Z" fill="#C43B48"/>
<path d="M89.4271 35.6953H27.4679V36.9391H89.4271V35.6953Z" fill="#9B2D42"/>
<path fill-rule="evenodd" clip-rule="evenodd" d="M50.38 37.6833C49.6245 37.6833 49.0107 37.0679 49.0107 36.3104C49.0107 35.5529 49.6245 34.9375 50.38 34.9375H66.5167C67.2722 34.9375 67.886 35.5529 67.886 36.3104C67.886 37.0679 67.2722 37.6833 66.5167 37.6833H50.38Z" fill="white"/>
<path d="M44.0764 34.1758H41.4871V38.459H44.0764V34.1758Z" fill="white"/>
<path d="M75.4095 34.1758H72.8202V38.459H75.4095V34.1758Z" fill="white"/>
<g style="mix-blend-mode:multiply" opacity="0.37">
<path d="M33.2171 25.3281H33.4522C33.3794 25.3581 33.3066 25.3898 33.2339 25.4216H33.0026C33.0735 25.3898 33.1443 25.3581 33.2171 25.3281Z" fill="#9B2D42"/>
</g>
<g style="mix-blend-mode:multiply" opacity="0.37">
<path d="M86.2013 33.2531C86.0576 33.3036 85.9121 33.3223 85.7647 33.3204C85.3151 33.313 84.8581 33.0922 84.4645 32.8453C83.4123 32.187 82.4945 31.3172 81.7781 30.3034C81.7427 30.2529 81.7072 30.2006 81.6718 30.1482C81.1849 29.4318 80.754 28.6463 80.1421 28.0627C80.0171 27.9411 79.8828 27.8308 79.7391 27.7297C79.685 27.6923 79.6309 27.6568 79.575 27.6231C78.1814 26.7721 76.4838 27.2883 74.941 27.1967C73.2154 27.0938 71.7436 27.3276 70.2082 26.5738C70.0254 26.484 69.8407 26.3793 69.6561 26.2596C69.6523 26.2596 69.6486 26.2559 69.6449 26.2521C69.2736 26.0108 68.9266 25.7321 68.6114 25.4216H58.5898C58.5712 25.6199 58.5712 25.82 58.5936 26.0221C58.601 26.1006 58.6141 26.1792 58.629 26.2559C58.6495 26.3625 58.6757 26.4653 58.7074 26.5701C58.7596 26.7422 58.8249 26.9105 58.8995 27.077C58.9462 27.1836 58.9965 27.2883 59.0506 27.3931C59.2577 27.8008 59.4984 28.1992 59.7017 28.607C59.8528 28.9119 59.9852 29.228 60.0953 29.5515C60.1326 29.6563 60.1643 29.7629 60.1961 29.8695C60.224 29.9612 60.2502 30.0547 60.2744 30.1482C60.4479 30.8253 60.53 31.5267 60.5188 32.2262C60.5076 32.8266 60.4162 33.4551 60.0617 33.9395C59.7073 34.424 59.0264 34.7102 58.4835 34.4539C57.9257 34.1883 57.7298 33.5056 57.5862 32.9033C57.3642 31.97 57.1068 31.0161 56.7019 30.1482C56.6348 30.0023 56.5639 29.8602 56.4874 29.7217C56.4277 29.6133 56.3662 29.5048 56.3009 29.4C56.0938 29.0652 55.8531 28.7491 55.5752 28.463C55.1387 28.0159 54.6275 27.6605 54.0958 27.3351C53.9186 27.2266 53.7395 27.12 53.5604 27.0171C53.3049 26.8675 53.0474 26.7197 52.7937 26.5682C52.6258 26.4653 52.4598 26.3625 52.2956 26.254C52.124 26.1399 51.9542 26.0183 51.7901 25.8911C51.6016 25.7452 51.4207 25.5881 51.2509 25.4216H36.5041C36.4612 25.3936 36.4201 25.3637 36.3828 25.3281H83.2034C83.2165 25.3599 83.2314 25.3898 83.2444 25.4216C83.3713 25.7078 83.5093 25.9884 83.6567 26.2652C83.7127 26.37 83.7705 26.4747 83.8302 26.5794C83.9197 26.7347 84.013 26.8881 84.11 27.0396C84.3264 27.3744 84.5801 27.6867 84.8506 27.9897C84.9495 28.1001 85.0502 28.2104 85.151 28.3208C85.3562 28.5415 85.5651 28.7603 85.7647 28.9811C85.9979 29.2392 86.2218 29.501 86.4177 29.7741C86.7423 30.2305 86.9941 30.7206 87.0948 31.2817C87.2348 32.056 86.9437 32.9969 86.2013 33.2531Z" fill="#9B2D42"/>
</g>
<path d="M97.5826 3.02694C96.8346 1.19206 93.9188 -0.162127 92.001 0.0735464C89.6803 0.35785 87.6413 1.96828 86.231 3.75454C84.5838 5.84193 83.7909 8.55778 82.1343 10.5909C80.8938 12.1134 78.9704 13.1515 77.0135 13.3143C76.4762 13.3592 75.9278 13.3685 75.3793 13.3872C74.9913 13.1702 74.5883 12.9851 74.1742 12.8392C73.566 12.4988 72.9299 12.207 72.2732 11.9619C71.1166 11.5299 69.9003 11.24 68.6784 11.0847C63.7479 10.4544 58.767 11.5804 54.1181 13.0861C52.3888 13.6453 50.5886 14.0774 48.7641 14.1092C48.723 14.1092 48.682 14.1092 48.6428 14.1092C49.361 13.7519 50.0942 13.4265 50.8423 13.1366C50.8665 13.1272 50.8777 13.0992 50.8684 13.0767C50.859 13.0524 50.8311 13.0412 50.8087 13.0505C49.999 13.3648 49.2062 13.7183 48.432 14.1111C47.9004 14.1111 47.3631 14.0998 46.8669 14.2121C46.3837 13.8268 45.8595 13.4863 45.3278 13.2002C46.2139 12.2219 47.1989 11.3335 48.2641 10.5573C48.2846 10.5423 48.2902 10.5124 48.2735 10.4918C48.2585 10.4712 48.2287 10.4656 48.2082 10.4806C47.1299 11.2643 46.1337 12.164 45.2401 13.1534C44.6338 12.8336 44.0201 12.5848 43.4474 12.4165C42.6377 12.1789 41.6957 12.0349 40.7909 12.0929C38.4217 10.6152 35.5898 9.88204 32.8009 10.0541C33.6105 11.9208 34.672 13.6771 35.948 15.2614C35.9294 15.2876 35.9107 15.3137 35.8939 15.3418C35.0899 16.5407 34.5097 18.2129 34.4687 19.8327C32.8102 20.3115 31.2861 21.2523 30.1239 22.5317C31.2973 23.0217 32.4782 23.5137 33.7206 23.7868C34.4444 23.9457 35.1925 24.028 35.9312 23.9888C35.7895 24.0561 35.6477 24.1365 35.5283 24.23C34.34 24.5162 33.1796 24.9127 32.0659 25.4159H32.2972C33.2953 24.9782 34.3306 24.6247 35.3865 24.361C35.2652 24.4938 35.1888 24.6528 35.1962 24.8379C35.2037 25.0886 35.3567 25.2775 35.5675 25.4159H50.3162C50.4859 25.5824 50.665 25.7395 50.8535 25.8854C51.0176 26.0126 51.1874 26.1323 51.3609 26.2482C51.5232 26.3567 51.6911 26.4596 51.859 26.5625C52.1127 26.7158 52.3682 26.8617 52.6238 27.0114C52.8029 27.1161 52.982 27.2208 53.1592 27.3293C53.6928 27.6567 54.202 28.0102 54.6386 28.4591C54.9184 28.7452 55.1572 29.0613 55.3661 29.3961C55.4314 29.5009 55.493 29.6075 55.5527 29.716C55.6292 29.8563 55.7001 29.9984 55.7672 30.1424C56.1702 31.0103 56.4276 31.9642 56.6515 32.8976C56.7951 33.4999 56.991 34.1826 57.5488 34.4463C58.0898 34.7025 58.7707 34.4182 59.1251 33.9319C59.4796 33.4475 59.571 32.819 59.5822 32.2186C59.5952 31.5191 59.5113 30.8195 59.3378 30.1406C59.3135 30.0471 59.2874 29.9535 59.2613 29.8619C59.2296 29.7553 59.196 29.6487 59.1606 29.5439C59.0505 29.2203 58.9181 28.9061 58.7669 28.5993C58.5636 28.1916 58.323 27.7932 58.1159 27.3854C58.0637 27.2807 58.0114 27.176 57.9648 27.0693C57.8902 26.9029 57.8249 26.7345 57.7726 26.5625C57.7409 26.4596 57.7148 26.3548 57.6943 26.2482C57.6794 26.1715 57.6682 26.093 57.6588 26.0144C57.6364 25.8124 57.6383 25.6142 57.6551 25.4159H67.6766C67.9938 25.7245 68.3389 26.0032 68.712 26.2464C68.7157 26.2482 68.7194 26.2501 68.7213 26.252C68.9079 26.3717 69.0907 26.4764 69.2735 26.5662C70.8088 27.32 72.2807 27.088 74.0063 27.189C75.5491 27.2807 77.2467 26.7645 78.6402 27.6136C78.6962 27.6473 78.7503 27.6828 78.8044 27.7202C78.948 27.8213 79.0824 27.9335 79.2073 28.0532C79.8192 28.6368 80.2502 29.4242 80.7371 30.1387C80.7725 30.1911 80.808 30.2434 80.8453 30.2939C81.5616 31.3077 82.4795 32.1775 83.5297 32.8359C84.0521 33.1632 84.6845 33.4456 85.2684 33.2436C86.0109 32.9874 86.3019 32.0465 86.162 31.2722C86.0612 30.7111 85.8094 30.221 85.4829 29.7646C85.1192 29.2559 84.6621 28.7883 84.2181 28.3113C84.1174 28.2028 84.0148 28.0925 83.9178 27.9802C83.6491 27.6772 83.3936 27.3649 83.179 27.0319C83.082 26.8804 82.9887 26.7271 82.8992 26.5699C82.8395 26.4671 82.7817 26.3623 82.7257 26.2557C82.5783 25.9789 82.4421 25.6983 82.3134 25.4121C81.2557 23.0517 80.7968 20.4069 79.6513 18.0558C80.8341 17.721 81.9403 17.0719 83.0596 16.1592C83.7965 15.5588 84.4625 14.8517 85.0595 14.0811C86.162 12.6615 87.0369 11.023 87.7141 9.42191C88.5648 7.41308 89.5815 4.60558 91.9898 4.15668C92.7155 4.02201 93.4841 4.10618 94.165 4.38674C94.803 4.65047 95.2675 5.27145 95.9503 5.40051C97.5099 5.6979 98.1199 4.33063 97.5845 3.01759L97.5826 3.02694Z" fill="#E89726"/>
<path d="M35.9344 23.9801C36.0072 23.9465 36.0781 23.9147 36.1489 23.8866C34.8972 22.899 34.4327 21.384 34.4718 19.8203C32.8134 20.2991 31.2893 21.24 30.1271 22.5193C31.3005 23.0094 32.4813 23.5013 33.7238 23.7744C34.4476 23.9334 35.1957 24.0157 35.9344 23.9764V23.9801Z" fill="#301B03"/>
<path d="M41.6394 15.0466C41.2924 14.955 40.9715 14.9138 40.645 15.0672C40.5891 15.0934 40.535 15.1214 40.4827 15.1532C39.9194 15.4862 39.5239 16.0866 39.4343 16.7356L39.4287 16.7861C39.3802 17.2238 39.4735 17.6745 39.6806 18.0636C39.8037 18.2937 40.1656 18.8473 40.4622 18.8548C40.8185 18.866 41.1674 18.3217 41.3315 18.0748C41.6151 17.6502 41.8987 17.2256 42.1822 16.8011C42.1953 16.7824 42.2065 16.7636 42.2195 16.7449C42.3333 16.5747 42.3221 16.3634 42.3818 16.1689C42.5497 15.6264 42.1561 15.1813 41.6394 15.0447V15.0466Z" fill="#301B03"/>
<path d="M37.1975 13.7086C37.6191 13.9499 38.0873 13.7217 38.5201 13.5758C39.0163 13.4094 39.4958 13.198 39.9547 12.9474C40.1394 12.8464 40.3446 12.6911 40.3203 12.4816C40.2998 12.317 40.145 12.2104 40.0032 12.1263C38.1955 11.0713 36.136 10.456 34.0466 10.3438C34.3209 10.8357 34.6399 11.3033 34.998 11.7391C35.6062 12.4816 36.3599 13.2298 37.1975 13.7086Z" fill="#301B03"/>
<path d="M43.6583 20.4833C43.6714 20.7377 43.6527 21.0145 43.5147 21.2371C43.3878 21.441 43.1285 21.5663 42.9271 21.686C42.7088 21.8151 42.4905 21.9423 42.2648 22.0601C42.1361 22.1274 41.9924 22.1779 41.8619 22.2434C41.6268 22.1144 41.263 21.9011 40.9608 21.6692C41.0354 21.5083 41.0727 21.3306 41.0821 21.1492C41.0933 20.9079 40.9142 20.82 40.8246 20.6199C40.7239 20.3917 40.7575 20.0812 40.418 20.0625C40.3862 20.0625 40.3545 20.0625 40.3247 20.0662C40.1717 20.0887 40.0299 20.1803 39.9087 20.2813C39.599 20.5413 39.3621 20.8836 39.2184 21.2633C39.0748 21.1193 38.808 21.1698 38.655 21.1324C38.4573 21.0856 38.2558 20.9341 38.0525 20.9491C37.7876 20.9697 37.5264 21.0426 37.2895 21.1623C37.1533 21.2315 37.0246 21.3176 36.9071 21.4167C36.4314 21.8207 36.1646 22.4585 36.2075 23.0814C36.2579 23.8202 36.9388 23.9698 37.5357 23.7136C37.8641 23.5733 38.1943 23.4311 38.4871 23.2254C38.5562 23.1768 38.6177 23.1188 38.6718 23.0552C38.795 22.6624 38.9778 22.5221 39.0711 22.2341C39.1084 22.4566 39.2408 22.5988 39.5803 22.4529C40.0131 22.2677 40.4609 22.3257 40.8004 21.9236C40.8209 21.8993 40.8414 21.8731 40.8601 21.8469C40.9272 21.9086 41.0019 21.9647 41.0783 22.0171C41.2724 22.1518 41.5858 22.249 41.8152 22.3051C41.8749 22.4136 41.9868 22.8232 42.0018 22.8644C42.0801 23.0926 42.1566 23.3226 42.2331 23.5508C42.2872 23.708 42.3506 23.8688 42.3581 24.0371C42.3637 24.1961 42.2611 24.314 42.1753 24.4393C42.2891 24.284 42.4775 24.2335 42.4271 23.996C42.3786 23.7697 42.3432 23.5377 42.3003 23.3096C42.276 23.1805 42.207 23.057 42.2107 22.9224C42.2163 22.7709 42.3674 22.7297 42.4849 22.6586C42.5111 22.6418 42.5409 22.6231 42.5521 22.5951C42.5614 22.5726 42.5577 22.5464 42.554 22.5221C42.5334 22.3781 42.4532 22.1779 42.5614 22.0676C42.6622 21.9647 42.8039 21.9105 42.9196 21.83C43.0856 21.7122 43.2666 21.6149 43.4233 21.484C43.5986 21.3381 43.6901 21.2184 43.7162 20.9865C43.7367 20.8051 43.6714 20.6554 43.6621 20.4833H43.6583Z" fill="#301B03"/>
<path d="M38.7554 23.7814C38.7554 23.7552 38.7311 23.7365 38.705 23.7384C37.6361 23.8114 36.5727 23.976 35.5299 24.2247C34.3416 24.5109 33.1812 24.9074 32.0675 25.4106H32.2988C33.2969 24.9729 34.3322 24.6194 35.3881 24.3556C36.4776 24.0844 37.5913 23.9067 38.7125 23.8301C38.7386 23.8301 38.7572 23.8057 38.7554 23.7796V23.7814Z" fill="#453B4B"/>
<path d="M38.9846 24.159C38.9734 24.1365 38.9455 24.1253 38.9212 24.1384C38.1284 24.5293 37.3542 24.9614 36.6042 25.4308H36.7815C37.4885 24.9932 38.216 24.5892 38.9623 24.2226C38.9846 24.2113 38.9958 24.1833 38.9828 24.1608L38.9846 24.159Z" fill="#453B4B"/>
<path d="M39.104 24.588C38.9156 24.8592 38.7328 25.136 38.5555 25.4147H38.6656C38.8316 25.1528 39.0033 24.8947 39.1805 24.6403C39.1954 24.6197 39.1898 24.5898 39.1693 24.5749C39.1488 24.5599 39.1189 24.5655 39.104 24.5861V24.588Z" fill="#453B4B"/>
<path d="M42.0294 18.133C42.0518 18.1442 42.0816 18.133 42.091 18.1106C42.9099 16.3206 44.0087 14.6596 45.3276 13.2007C46.2138 12.2225 47.1987 11.334 48.2639 10.5578C48.2845 10.5428 48.2901 10.5129 48.2733 10.4923C48.2583 10.4718 48.2285 10.4661 48.208 10.4811C47.1297 11.2648 46.1335 12.1645 45.24 13.1539C43.921 14.6166 42.8223 16.2775 42.0033 18.0713C41.9921 18.0956 42.0033 18.1237 42.0257 18.133H42.0294Z" fill="#453B4B"/>
<path d="M50.8081 13.0405C49.9985 13.3547 49.2056 13.7082 48.4314 14.101C46.1947 15.2345 44.1165 16.6859 42.2827 18.3992V18.4666L42.3461 18.4684C44.2191 16.7177 46.3477 15.242 48.6404 14.101C49.3586 13.7438 50.0917 13.4183 50.8398 13.1284C50.8641 13.119 50.8753 13.091 50.8659 13.0685C50.8566 13.0442 50.8286 13.033 50.8062 13.0423L50.8081 13.0405Z" fill="#453B4B"/>
<path d="M50.131 18.1064C49.5415 18.0615 48.9502 18.0391 48.3588 18.0391C46.4373 18.0391 44.5158 18.2766 42.6522 18.7442C42.6279 18.7498 42.6111 18.776 42.6186 18.8003C42.6242 18.8246 42.6503 18.8415 42.6746 18.834C44.5308 18.3683 46.4448 18.1326 48.3588 18.1326C48.9483 18.1326 49.5359 18.155 50.1236 18.1999C50.1497 18.1999 50.1721 18.1831 50.1739 18.1569C50.1739 18.1307 50.1571 18.1083 50.131 18.1064Z" fill="#453B4B"/>
<path d="M40.6451 15.074C41.3205 15.188 41.9193 15.7398 42.1487 16.4655C42.1767 16.5572 42.201 16.6526 42.2196 16.7536C42.3334 16.5834 42.4416 16.4076 42.5013 16.213C42.6692 15.6706 42.2084 15.0852 41.6917 14.9486C41.3447 14.857 40.9716 14.9206 40.6451 15.0758V15.074Z" fill="#F8E6D0"/>
<path d="M39.1265 21.567C39.1508 21.4623 39.1825 21.3594 39.2198 21.2584C39.0761 21.1144 38.815 21.0265 38.6601 20.9891C38.4624 20.9423 38.2572 20.9274 38.0538 20.9442C38.4083 21.3089 38.5706 21.9187 38.6471 22.4143C38.6583 22.4835 38.6657 22.5546 38.6713 22.6257C38.6825 22.7678 38.6844 22.9119 38.6713 23.054C38.8635 22.8277 38.9773 22.521 39.0705 22.2329C39.037 22.0272 39.0836 21.7541 39.1265 21.5689V21.567Z" fill="#F8E6D0"/>
<path d="M45.4654 20.6562C45.4654 20.8208 45.4617 20.9854 45.4524 21.15C45.4375 21.4082 45.4113 21.6644 45.3628 21.9188C45.2975 22.2592 45.2043 22.594 45.083 22.9195C44.8759 23.4768 44.6316 24.0473 44.3032 24.5449C44.5122 24.4064 44.7062 24.2475 44.8815 24.0679C45.2677 23.6732 45.5195 23.1589 45.6333 22.6202C45.693 22.334 45.7098 22.0385 45.6893 21.7467C45.6632 21.3708 45.6035 21.0116 45.4673 20.6562H45.4654Z" fill="#CC7B1B"/>
<path d="M76.8981 14.4547C77.6443 15.0944 78.301 15.8463 78.8438 16.6562C79.1479 17.1107 79.4128 17.584 79.6479 18.0684C80.8306 17.7336 81.9369 17.0846 83.0562 16.1718C83.793 15.5714 84.459 14.8644 85.056 14.0938C84.4628 14.3425 83.8565 14.5595 83.2352 14.7334C81.1552 15.3151 78.8364 15.36 76.8962 14.4566L76.8981 14.4547Z" fill="#CC7B1B"/>
<path d="M58.356 21.9857C58.3504 20.9383 57.8523 19.9432 57.1733 19.1483C56.4942 18.3534 55.6435 17.7287 54.7985 17.1133C55.7592 18.2767 56.7349 19.4644 57.2852 20.871C57.8355 22.2756 57.5874 23.3867 57.3915 24.8007C57.9381 23.9927 58.3616 22.9752 58.356 21.9857Z" fill="#CC7B1B"/>
<path d="M50.0829 25.0392C49.8143 24.1601 49.5867 23.3034 49.1595 22.4879C48.9804 22.1457 48.7808 21.8146 48.5625 21.4966C48.4114 21.2759 47.9394 20.87 47.8872 20.625C48.2305 22.2785 49.2043 23.6382 50.0829 25.0411V25.0392Z" fill="#CC7B1B"/>
<path d="M68.9637 16.4159C67.531 16.704 66.5908 18.1928 66.4509 19.6518C66.2942 21.2734 66.6505 22.9044 67.4023 24.3446C66.8632 23.3103 66.8408 21.4679 67.1281 20.3588C67.4937 18.9504 68.2343 17.6729 68.9656 16.4141L68.9637 16.4159Z" fill="#CC7B1B"/>
<path d="M64.5423 11.3659C64.1113 11.3397 63.6412 11.5118 63.3297 11.8111C62.8372 12.2861 62.8969 12.967 63.6748 12.967C64.2251 12.967 65.184 12.6079 65.2195 11.942C65.2418 11.5398 64.893 11.3865 64.5423 11.3659Z" fill="#CC7B1B"/>
<path d="M62.2681 11.5686C62.0871 11.7163 61.9808 12.0549 62.2793 12.1147C62.3968 12.1372 62.5069 12.0586 62.5964 11.9819C62.9732 11.6602 62.6113 11.2861 62.2662 11.5686H62.2681Z" fill="#CC7B1B"/>
<path d="M60.3074 11.9533C59.8821 12.1141 59.4213 12.4508 59.218 12.8717C59.1564 12.9988 59.1452 13.1148 59.1676 13.2158C59.2385 13.5244 59.6396 13.6965 60.0071 13.618C60.3466 13.545 60.6264 13.3112 60.8764 13.0699C61.0331 12.9184 61.1898 12.7463 61.229 12.5312C61.3391 11.9103 60.7384 11.7906 60.3093 11.9514L60.3074 11.9533Z" fill="#CC7B1B"/>
<path d="M67.4546 12.7601C67.5963 12.6946 67.7288 12.5955 67.8034 12.4571C67.8799 12.3205 67.8911 12.141 67.8034 12.0101C67.7176 11.8791 67.5273 11.8193 67.3949 11.8997L67.2643 11.9278C67.0926 11.9745 66.9247 12.0624 66.8259 12.2121C66.727 12.3598 66.7177 12.5749 66.8352 12.7096C66.9826 12.8779 67.2531 12.8555 67.4546 12.7601Z" fill="#CC7B1B"/>
<path d="M62.6226 14.9328C62.7644 15.0058 62.9379 14.9665 63.0852 14.9029C63.2587 14.8281 63.4248 14.7159 63.5218 14.5532C64.3202 13.242 61.4996 14.3605 62.6226 14.9328Z" fill="#CC7B1B"/>
<path d="M78.5509 20.7611C78.7057 20.8752 78.9147 20.9239 79.0938 20.8565C79.3475 20.7611 79.4762 20.4712 79.4911 20.2C79.5172 19.7006 79.1143 18.8627 78.4987 19.1413C77.8961 19.4163 78.1106 20.4375 78.549 20.7611H78.5509Z" fill="#CC7B1B"/>
<path d="M79.8044 20.9488C79.838 21.0704 79.9033 21.1957 80.019 21.2443C80.1757 21.3117 80.3697 21.2032 80.4312 21.0423C80.6495 20.4831 79.5414 19.9911 79.8026 20.9469L79.8044 20.9488Z" fill="#CC7B1B"/>
<path d="M80.0145 22.5381C80.2869 22.1752 79.7104 21.4663 79.3112 21.8479C79.0109 22.134 79.3616 22.6035 79.688 22.6559C79.8074 22.6746 79.9418 22.6353 80.0164 22.5381H80.0145Z" fill="#CC7B1B"/>
<path d="M58.2386 34.4718L57.6901 33.6133C57.6789 33.9743 57.9065 34.3315 58.2386 34.4718Z" fill="#6B5B8D"/>
<path d="M59.0059 33.973L58.6067 33.2305C58.5992 33.5241 58.7578 33.8178 59.0059 33.973Z" fill="#6B5B8D"/>
<path d="M85.4586 33.1341L84.5986 32.457C84.7348 32.8143 85.0781 33.0855 85.4586 33.1341Z" fill="#6B5B8D"/>
<path d="M85.9606 32.4194L85.317 31.7461C85.4178 32.051 85.6603 32.3072 85.9606 32.4194Z" fill="#6B5B8D"/>
</g>
<defs>
<clipPath id="clip0_7822_12618">
<rect width="101.489" height="72" fill="white" transform="translate(0.255371)"/>
</clipPath>
</defs>
</svg>
